<?xml version="1.0" encoding="iso-8859-1"?>
<!-- Uploaded to: SVG Repo, www.svgrepo.com, Generator: SVG Repo Mixer Tools -->
<svg height="800px" width="800px" version="1.1" id="Layer_1" xmlns="http://www.w3.org/2000/svg" xmlns:xlink="http://www.w3.org/1999/xlink" 
	 viewBox="0 0 512 512" xml:space="preserve">
<path style="fill:#9D2217;" d="M463.771,171.568h-59.422v-52.133c0-6.203,5.029-11.232,11.232-11.232h36.96
	c6.203,0,11.232,5.029,11.232,11.232v52.133H463.771z"/>
<path style="fill:#DE3205;" d="M434.06,108.203h-18.48c-6.203,0-11.232,5.029-11.232,11.232v52.133h29.712V108.203z"/>
<path style="fill:#C6C5CA;" d="M359.259,62.15c-1.609-8.34-8.909-14.365-17.401-14.365H170.762c-8.494,0-15.793,6.026-17.401,14.365
	l-13.924,72.171h233.747L359.259,62.15z"/>
<path style="fill:#797882;" d="M256,134.321h117.183L359.259,62.15c-1.609-8.34-8.909-14.365-17.401-14.365H256V134.321z"/>
<path style="fill:#57565C;" d="M301.739,115.643h-90.86c-4.61,0-8.348-3.738-8.348-8.348V85.148c0-4.61,3.738-8.348,8.348-8.348
	h90.86c4.61,0,8.348,3.738,8.348,8.348v22.147C310.087,111.905,306.35,115.643,301.739,115.643z"/>
<path style="fill:#797882;" d="M512,434.091c0,16.637-13.487,30.123-30.123,30.123H30.123C13.487,464.215,0,450.728,0,434.091
	V157.766c0-16.637,13.487-30.123,30.123-30.123h451.753c16.637,0,30.123,13.487,30.123,30.123V434.091z"/>
<path style="fill:#2D2E30;" d="M481.877,127.643H255.989L256,464.215h225.877c16.637,0,30.123-13.487,30.123-30.123V157.766
	C512,141.129,498.513,127.643,481.877,127.643z"/>
<circle style="fill:#1D1D1F;" cx="256" cy="298.707" r="146.198"/>
<circle style="fill:#EDA637;" cx="52.847" cy="185.222" r="21.5"/>
<path style="fill:#F7DC4D;" d="M52.853,206.727c-11.874,0-21.5-9.626-21.5-21.5s9.626-21.5,21.5-21.5V206.727z"/>
<path style="fill:#227AA0;" d="M465.65,211.349h-34.922c-6.762,0-12.243-5.482-12.243-12.243V171.35
	c0-6.762,5.482-12.243,12.243-12.243h34.922c6.762,0,12.243,5.482,12.243,12.243v27.756
	C477.893,205.867,472.411,211.349,465.65,211.349z"/>
<path style="fill:#5EC5EA;" d="M448.188,159.106h-17.461c-6.762,0-12.243,5.482-12.243,12.243v27.756
	c0,6.762,5.482,12.243,12.243,12.243h17.461V159.106z"/>
<path style="fill:#2D2E30;" d="M301.739,76.8H256v38.843h45.739c4.61,0,8.348-3.738,8.348-8.348V85.148
	C310.087,80.538,306.35,76.8,301.739,76.8z"/>
<path style="fill:#464449;" d="M109.803,298.711c0,80.742,65.455,146.197,146.197,146.197V152.514
	C175.258,152.514,109.803,217.968,109.803,298.711z"/>
<circle style="fill:#0E0E0F;" cx="256" cy="298.707" r="43.007"/>
<circle style="fill:#FFFFFF;" cx="288.824" cy="255.699" r="21.5"/>
<path style="fill:#797882;" d="M256,415.505c-64.401,0-116.794-52.393-116.794-116.794S191.599,181.917,256,181.917
	c64.4,0,116.794,52.393,116.794,116.794S320.401,415.505,256,415.505z M256,204.178c-52.126,0-94.533,42.408-94.533,94.533
	s42.408,94.533,94.533,94.533s94.533-42.408,94.533-94.533S308.126,204.178,256,204.178z"/>
</svg>